<svg xmlns="http://www.w3.org/2000/svg" viewBox="0 0 608.33 443.26"><defs><style>.cls-1{fill:#fff;opacity:0.24;}</style></defs><title>ÍCONO COLAB</title><g id="Capa_2" data-name="Capa 2"><g id="maquetado"><path class="cls-1" d="M265,0H407.62c5,2.16,7,5.88,7,11.35-.14,32.19,0,64.38-.13,96.57A87.93,87.93,0,0,1,406.69,144a14,14,0,0,0-1.31,6c.05,7,.14,14.08,0,21.11a106.81,106.81,0,0,1-9.73,43.35C389.8,227,382,238.12,371.12,247c-1.71,1.39-3,2.91-3,5.42.13,7.78.07,15.57,0,23.36a5.85,5.85,0,0,0,1.67,4.31c4.9,5.18,9.72,10.44,14.62,15.63a8.6,8.6,0,0,1,2.6,4.56,3.94,3.94,0,0,0,3,3.3c15.38,5.53,30.73,11.14,46.1,16.69a5.25,5.25,0,0,0,2.72.49c7.39-1.79,14.89-3.21,21.93-6.2a3.44,3.44,0,0,0,2.46-3.13c.19-6.38,1.47-13.15-5.87-16.95a3.68,3.68,0,0,1-.8-.78c-14.75-14.62-22.4-32.22-21.89-53.06.18-7.07-.76-13.62-3.89-20.11-6.75-14-6.08-28.41-.57-42.64,7.91-20.4,28.36-35.24,49.35-35.43,29.13-.27,58.25-.14,87.38-.11,6.4,0,10.35,4,10.38,10.44.06,15.39.12,30.78-.05,46.17a45.94,45.94,0,0,1-5.7,22.69,27.25,27.25,0,0,0-3.78,15.33,97.81,97.81,0,0,1-.25,16.59A64.13,64.13,0,0,1,546,295.37c-5.14,4.55-6.27,9-5.87,15,.29,4.25.58,5,4.68,6.14,10.92,3.14,21.84,6.31,32.78,9.36a41.75,41.75,0,0,1,18.19,10.83c6.29,6.14,10.17,13.63,12.55,22v77.71c-.16.33-.31.68-.48,1-2.26,4.53-5.88,6.53-10.19,5.66-4.53-.93-7.29-4.47-7.47-9.6,0-1.22,0-2.44,0-3.66q0-33.93,0-67.85c0-8.89-4.67-16.22-12.32-18.7C564.7,339,551.46,335.08,538.28,331a4.51,4.51,0,0,0-5.23,1.37q-8.2,8.73-16.68,17.17a8.65,8.65,0,0,0-2.77,6.7c.09,24.77,0,49.54,0,74.32a17.73,17.73,0,0,1-.44,5,9.88,9.88,0,0,1-9.46,7.07,9.27,9.27,0,0,1-9-7.53,24.38,24.38,0,0,1-.34-4.76c0-24.31-.08-48.61.05-72.91,0-3.55-.83-6.2-3.52-8.65A169.53,169.53,0,0,1,477.24,335c-3.35-3.85-6.53-5.63-11.08-2.28a3.27,3.27,0,0,1-.8.27c-3.13,1.09-3.12,1.13-1.06,3.59,6.69,8,10.46,17.14,10.52,27.57.12,23.09.06,46.17.06,69.26,0,.47,0,.94-.05,1.4a9,9,0,0,1-8.13,8.36,8.76,8.76,0,0,1-9.47-6.34,18.58,18.58,0,0,1-.63-5.85c0-21.67.15-43.35-.06-65-.11-12-6.07-20.63-17-25.67-3.49-1.61-7.16-2.84-10.77-4.18-15.05-5.61-30.12-11.17-45.15-16.84-2.23-.84-3.59-.56-4.89,1.54-2.12,3.43-4.52,6.69-6.81,10-5.59,8.11-11.05,16.33-16.84,24.31-4.35,6-10.48,8.28-17.82,6.93-4.12-.76-7.43-3-10.4-5.87-4.35-4.22-8.78-8.35-13.26-12.6-1,1.42-.6,2.66-.6,3.83q0,42.09,0,84.18a22.22,22.22,0,0,1-.32,4.47,8.78,8.78,0,0,1-9.15,7.14,9.13,9.13,0,0,1-8.74-8.38c-.12-1.41-.09-2.82-.09-4.22q0-41.67,0-83.34c0-1.13.36-2.38-.64-3.7-4.59,4.39-9,8.7-13.54,12.91-9.72,9.05-22,7.64-29.4-3.36-7-10.44-14-20.91-21-31.37-2.38-3.55-2.38-3.57-6.52-2.06l-40.47,14.87c-4.41,1.62-8.84,3.17-13.21,4.92-11.87,4.73-17.92,13.77-18.09,26.31-.3,21.77-.1,43.54-.1,65.31a18.49,18.49,0,0,1-.44,5,9.71,9.71,0,0,1-9.69,7.09,9,9,0,0,1-8.76-7.71,28.23,28.23,0,0,1-.37-5c0-18.39.21-36.79-.1-55.17-.18-11.09,1.06-21.72,6.36-31.63,1-1.87.41-2.94-1.45-3.68a41.76,41.76,0,0,1-4.6-2.15,3.21,3.21,0,0,0-4.46.76c-2.23,2.42-4.62,4.68-7,7a37.83,37.83,0,0,1-47.65,4.59c-4.51-3-8.21-6.88-11.84-10.79-2.06-2.22-3.77-2.31-6.35-1-7.86,4-15.77,7.94-23.8,11.63-8.89,4.09-12.9,11-12.88,20.58,0,10.51,0,21,0,31.53s.06,20.83,0,31.25c-.05,6.12-4.82,10.41-10.57,9.78-4-.44-6.31-3-8.14-6.23V363.19a13.67,13.67,0,0,0,.58-1.58c3.14-13.24,11.51-22,23.55-27.72,5.93-2.81,11.83-5.73,17.73-8.62.65-.32,1.7-.47,1.72-1.27,0-1-1.15-1.08-1.87-1.4A76.12,76.12,0,0,1,29.64,316C22,310.69,15.06,304.71,10.8,296.2a7.27,7.27,0,0,1-.37-6.75c3-6.26,4.27-13,5.26-19.77,1.94-13.39,2.31-26.89,2.83-40.39.32-8.42.52-16.86,2.27-25.17,7.44-35.42,36.71-61.93,72.11-62.45,18.8-.27,35.22,5.84,49.13,18.43,17.77,16.1,25.56,36.77,27.25,60.21.82,11.33,0,22.7,1,34,1.07,11.61,2.09,23.17,7.2,33.93,1.65,3.47,1.08,6.81-1.18,10.07a69.54,69.54,0,0,1-25.8,22.17c-1.67.86-3.38,1.63-5.05,2.49-.55.29-1.28.59-.58,1.48,1.37,1.76,6.85,3.06,8.75,1.87A61.47,61.47,0,0,1,165.73,321q24-8.65,48-17.31c1.49-.53,3.1-.91,3.34-2.94.33-2.85,2-5,3.9-7,4.2-4.43,8.34-8.91,12.55-13.32a6.41,6.41,0,0,0,2.08-4.72q-.1-12.37,0-24.77a5,5,0,0,0-1.93-4.12C214,229.93,202.82,208.44,198.87,183c-1.64-10.54-1-21.15-1.09-31.74a20.19,20.19,0,0,0-1.34-7.4,133.6,133.6,0,0,1-6.05-20.19c-2.58-11.86-2-23.88-2.13-35.88a85.73,85.73,0,0,1,6.07-33.56C203.74,31.14,220.12,15,243.21,5.58c7-2.85,14.38-4.26,21.77-5.58M333,20.22c-18.41,0-36.83.11-55.25,0-11.5-.1-22.49,1.91-32.58,7.48-21.49,11.86-33.6,29.93-35.45,54.58a238.63,238.63,0,0,0,0,28.68,73.43,73.43,0,0,0,6.9,28.53,22.68,22.68,0,0,1,2.2,10c-.05,8.91-.49,17.88.3,26.73,2,22.11,10.78,41.23,26.85,56.77,14.89,14.39,32.72,22.79,53.43,23.59,24.59,1,46.53-6.42,64.5-23.74C380.1,217.25,389,198.15,390,175.66c.42-9.27.11-18.58.11-27.87a14,14,0,0,1,1.37-6.54c5.8-11.38,8-23.57,8.08-36.21.07-26.74,0-53.49,0-80.23,0-4.52-.07-4.59-4.55-4.59H333M518.18,161.74c-11.65,0-23.29-.07-34.94,0-13,.11-23.87,5-31.46,15.74-7.2,10.21-9.55,21.32-4.34,33.22,1.54,3.52,3.39,6.91,5.24,10.28a14.57,14.57,0,0,1,1.83,7.53c-.09,5.53-.12,11.07,0,16.6.72,26.56,21.24,49.59,50.43,48.84,24.76-.65,42.32-23.27,44.2-39.05a106,106,0,0,0,.33-18,39.84,39.84,0,0,1,4.38-20.85,36.09,36.09,0,0,0,4.23-16.77c0-11.35-.06-22.7,0-34,0-2.7-.95-3.59-3.63-3.57-12.12.1-24.23,0-36.35,0M154.85,235.67a95,95,0,0,0-.42-15.14c-1.34-16.17-6.41-30.76-18.17-42.52-11.43-11.43-25.3-17.54-41.36-16.66-24.49,1.35-41.66,13.89-51.42,36.44-5.17,12-5,24.69-5.51,37.33-.06,1.63.82,2.2,2.36,2.53,5.61,1.18,7.89,4,8.32,9.71.19,2.62.36,5.26.81,7.84,3.88,22.21,22.83,38.75,44.85,39.19,23.54.48,43.48-15,48.4-37.5a6.72,6.72,0,0,0-.62-4.86,54.4,54.4,0,0,0-15-18.07C115,224.64,101,220.35,86,218.48a7.24,7.24,0,0,0-7.11,2.63c-3.21,3.67-6.62,7.17-10.1,10.59a9.31,9.31,0,0,1-13,.25c-3.56-3.43-3.49-8.52.31-12.54,4.89-5.19,10-10.2,14.77-15.49a10.12,10.12,0,0,1,7.91-3.52,104.48,104.48,0,0,1,19.35,1.65c18.15,3.16,34.66,9.75,47.92,23.09a135.23,135.23,0,0,1,8.82,10.53m101.15,36a17.77,17.77,0,0,1,0,2.53c-.57,3.8,1,6.11,4.29,8.19,13.69,8.72,27.24,17.68,40.74,26.7,2.34,1.56,4,1.48,6.25-.12,11.62-8.29,23-17,35.15-24.4,7.3-4.47,10.1-9.8,8.71-17.84a1.31,1.31,0,0,1,0-.28c.18-2.43-.91-2.8-2.87-1.77-.58.3-1.2.54-1.8.8a110.77,110.77,0,0,1-60.93,7.74A91.42,91.42,0,0,1,259.27,265c-3-1.43-3.23-1.26-3.27,2.17,0,1.5,0,3,0,4.5m111.15,32.89a2.91,2.91,0,0,0-1.12-2.11c-1.86-1.86-3.8-3.65-5.56-5.6-1.36-1.51-2.52-1.41-4.11-.31q-18,12.57-36.15,25c-1.93,1.32-2,2.28-.34,3.89q9.25,9.06,18.33,18.31c1.6,1.63,2.54,1.68,3.84-.34,8-12.38,16.08-24.7,24.12-37.05.41-.62.72-1.3,1-1.78m-117.54-9a2.48,2.48,0,0,0-2.07,1.09c-1.72,1.85-3.37,3.79-5.17,5.56-1.3,1.29-1.37,2.4-.37,3.93q12.27,18.69,24.42,37.45c1.13,1.75,2,1.78,3.45.33q9.28-9.41,18.71-18.68c1.63-1.59,1.3-2.49-.44-3.66q-18.42-12.44-36.76-25c-.61-.42-1.28-.76-1.77-1M96.67,340.05a14.73,14.73,0,0,0,9.27-2.82c3.86-2.81,7.61-5.78,11.42-8.67,1-.73,1.73-1.54,1.23-2.85-1.53-4-1.43-8.09-1.34-12.21.06-2.22-.61-3.16-3-2.48a60.76,60.76,0,0,1-33.61.05c-3-.83-3.36-.5-3.35,2.49,0,4.13,0,8.25-1.36,12.22-.46,1.28.19,2.18,1.07,3,2.87,2.56,5.66,5.22,8.66,7.62a16.34,16.34,0,0,0,11,3.69M521.28,316.5c-.09-1-.3-2.27-.32-3.58,0-1.83-.77-2.28-2.49-1.71a46.17,46.17,0,0,1-5.44,1.4,53.7,53.7,0,0,1-25.86-1.41c-.94-.28-2-.88-2.94-.07-1.31,1.12-1.35,7.28-.06,8.58,5.29,5.32,10.63,10.58,15.89,15.93,1.42,1.45,2.5,1.53,4,0,5.25-5.36,10.59-10.62,15.89-15.92a3.58,3.58,0,0,0,1.37-3.26M36.53,274.05c-1.39,6.14-3,12.09-4.59,18a2.63,2.63,0,0,0,.71,2.59c6.59,7.38,14.81,12.27,24.09,15.53.83.29,1.62.44,2.11-.63,1.22-2.66-.21-8.91-2.49-10.74a67.81,67.81,0,0,1-15.9-17.7c-1.4-2.3-2.62-4.71-3.93-7.07m119.2-.34a71.16,71.16,0,0,1-21,25.81,3.69,3.69,0,0,0-1.6,3.12c0,1.87,0,3.75,0,5.62s.76,2.42,2.45,1.63c3-1.4,6-2.72,8.88-4.25a57,57,0,0,0,15-10.82c.94-1,1.78-1.95,1.15-3.47-2.34-5.65-3.6-11.6-4.84-17.64"/></g></g></svg>