<svg xmlns="http://www.w3.org/2000/svg" viewBox="0 0 474.95 577.07"><defs><style>.cls-1{opacity:0.24;}.cls-2,.cls-3{fill:none;stroke:#fff;stroke-miterlimit:10;}.cls-2{stroke-width:18px;}.cls-3{stroke-width:12px;}</style></defs><title>ÍCONO CLIENTE</title><g id="Capa_2" data-name="Capa 2"><g id="maquetado"><g class="cls-1"><path class="cls-2" d="M217.17,568.07c-7-.23-14-.34-21-.7-16.67-.85-33.38-1.41-50-2.87-17.63-1.55-35.2-3.81-52.76-6.1A346.26,346.26,0,0,1,30.7,544.71c-1.88-.61-3.71-1.39-5.61-1.88-8.65-2.21-12.49-8.47-14.32-16.58-2.1-9.26-1.92-18.64-1.51-28,.38-8.9.83-17.81,1.57-26.7.78-9.43,1.66-18.87,3-28.25a269.45,269.45,0,0,1,11.77-50.63c5.43-15.77,12.36-30.82,21.8-44.59,5-7.24,12.24-12,19.63-16.54,9.86-6,21-8.67,31.75-12.55,18-6.54,36-13.28,52.23-23.61,3.51-2.23,5.4-1.68,8.67.27,5,3,6.56,6.57,6.34,12.32-.73,19.44-.91,38.9-1.22,58.36a14.56,14.56,0,0,0,.88,5.23q24.58,66,49.3,131.92,6.72,18,13.52,36c1.86,4.92,4.66,7.05,9.12,7.09,4.71,0,7.51-2,9.42-7.08q27-72,54-144c3-7.94,6-15.87,8.92-23.83a10.16,10.16,0,0,0,.7-3.56c-.33-21-.63-42-1.15-62.93-.09-3.55.48-6.09,3.94-7.78,2.42-1.18,4.51-3,6.67-4.52C343,307.37,368.21,316,393.49,324.66c13.16,4.51,25.17,11.34,33.84,22.47,7,9,12,19.43,16.53,30a247,247,0,0,1,16.26,57,441.93,441.93,0,0,1,5.61,59.65c.26,8.52.39,17.08-.13,25.58-.27,4.52-1.73,9.06-3.22,13.39-1.59,4.6-5.08,7.51-9.75,9.25-16.85,6.29-34.25,10.46-51.9,13.56q-18.44,3.22-37,5.62c-10,1.3-20.15,2.15-30.24,3-13.05,1-26.1,2-39.17,2.68-11.27.58-22.57.71-33.87,1a21.26,21.26,0,0,0-2.23.29Z"/><path class="cls-2" d="M223.64,9c16.71.32,32.55,4.39,48.14,10,15.43,5.5,30.5,11.71,43.75,21.53C332,52.73,343.84,68.23,348,88.82c2.5,12.41,1.59,24.72-1.11,36.94-1.33,6-3.07,11.87-4.51,17.83-.21.87-.15,2.32.39,2.77,4.58,3.81,5.83,9.1,6,14.5.37,12.45-1.2,24.88-7.34,35.74-4.62,8.18-5.92,17.15-9,25.67-8.77,24.5-22,46-41.7,63.17-12.1,10.53-26,17.81-41.9,20.79a62.58,62.58,0,0,1-38.22-4.73c-28.86-13.18-48.48-35.48-62.11-63.58A129.32,129.32,0,0,1,138,204.33a3.93,3.93,0,0,0-.54-1.83c-5.77-6.66-7.45-14.95-9.09-23.2-1.5-7.51-3-15.05-1.85-22.81a16.86,16.86,0,0,1,4.64-9.76,3.81,3.81,0,0,0,.94-3.08,142.46,142.46,0,0,1-5-46.35c.77-11.92,4.88-22.79,10.49-33.19,7.06-13,15.85-24.73,27.38-34.17a87.87,87.87,0,0,1,43.41-19.42C213.43,9.77,218.55,9.5,223.64,9Z"/><path class="cls-3" d="M209.1,324.37c19.08,6.83,37.65,6.26,56.69.66-6.11,9.35-12,18.28-17.77,27.2-2,3.09-3.9,6.26-6.07,9.24-1.13,1.55-.75,2.39.47,3.55,5.78,5.49,11.26,11.34,17.33,16.48,3.48,2.95,3.69,6,3,9.94-2.58,14.69-4.94,29.42-7.38,44.14q-3.26,19.57-6.51,39.15-3.58,21.66-7.15,43.33a77.76,77.76,0,0,1-1.33,8.38c-.35,1.29-1.69,3.1-2.77,3.24-2,.26-2.49-1.71-2.78-3.51q-3.18-19.86-6.47-39.71t-6.61-40q-3.63-21.94-7.25-43.88c-.81-4.84-1.61-9.68-2.44-14.52a4.76,4.76,0,0,1,1.63-4.74c6.51-6.09,12.85-12.37,19.35-18.49,1.24-1.16,1.27-1.89.35-3.29C225.37,349.41,217.45,337.2,209.1,324.37Z"/></g></g></g></svg>