<?xml version="1.0" standalone="no"?>
<!DOCTYPE svg PUBLIC "-//W3C//DTD SVG 20010904//EN"
 "http://www.w3.org/TR/2001/REC-SVG-20010904/DTD/svg10.dtd">
<svg version="1.0" xmlns="http://www.w3.org/2000/svg"
 width="1074.000000pt" height="253.000000pt" viewBox="0 0 1074.000000 253.000000"
 preserveAspectRatio="xMidYMid meet">

<g transform="translate(0.000000,253.000000) scale(0.100000,-0.100000)"
fill="#000000" stroke="none">
<path d="M2840 2450 c0 -5 -14 -25 -31 -44 -30 -35 -118 -76 -160 -76 l-21 0
21 34 c12 18 21 38 21 45 0 33 -106 -11 -142 -59 -14 -20 -30 -30 -47 -30 -14
0 -116 16 -226 36 -441 79 -751 41 -915 -112 -71 -67 -95 -127 -95 -244 0 -86
3 -100 29 -148 46 -83 128 -132 245 -148 43 -5 52 -4 57 11 10 24 -14 36 -60
29 -84 -12 -188 54 -228 144 -27 61 -26 175 3 242 39 91 148 170 282 206 77
20 86 17 36 -14 -126 -81 -190 -222 -159 -352 14 -59 69 -124 113 -136 42 -10
50 6 26 54 -51 103 -10 253 95 350 137 126 289 141 699 66 80 -15 97 -21 92
-33 -17 -44 -69 -201 -105 -318 -22 -73 -42 -133 -43 -133 -1 -1 -20 -3 -42
-6 -126 -16 -221 -62 -299 -144 -61 -64 -81 -115 -68 -176 16 -77 82 -76 159
3 44 46 60 92 49 138 -9 35 -27 31 -58 -15 -28 -40 -58 -53 -58 -25 0 24 65
89 118 118 49 26 169 63 178 54 7 -6 -81 -238 -119 -312 -68 -138 -160 -255
-224 -288 -79 -41 -171 -20 -218 51 -81 122 -42 320 110 547 105 158 239 265
331 265 52 0 65 17 33 43 -20 16 -36 18 -95 15 -242 -12 -521 -334 -549 -632
-9 -97 13 -188 58 -235 97 -102 251 -137 399 -91 120 37 214 120 280 247 37
71 131 314 143 370 6 28 11 33 56 42 98 21 139 53 159 122 12 40 -6 47 -35 15
-22 -24 -144 -90 -152 -83 -5 6 77 307 99 362 l23 57 70 3 c126 5 205 57 205
134 0 35 -14 61 -32 61 -4 0 -8 -4 -8 -10z"/>
<path d="M932 2363 c-19 -27 -62 -150 -77 -220 -8 -38 -15 -40 -39 -14 -24 26
-107 55 -116 40 -10 -15 6 -102 24 -138 19 -36 44 -51 83 -51 l28 0 2 -90 3
-89 -37 21 c-40 24 -196 39 -214 21 -12 -12 36 -113 77 -162 47 -56 114 -76
177 -52 23 9 25 7 42 -52 10 -34 25 -74 32 -89 l14 -28 -43 -1 c-49 -1 -110
-20 -116 -37 -2 -6 17 -31 41 -56 54 -53 103 -68 143 -41 14 9 28 15 30 12 2
-2 20 -26 39 -52 l34 -48 -55 -23 c-31 -12 -65 -31 -77 -40 -60 -50 -85 -78
-80 -89 2 -8 34 -25 69 -39 116 -47 214 -28 250 47 l16 33 67 -34 c71 -35 151
-53 151 -34 0 6 -19 16 -42 22 -49 13 -146 60 -189 92 l-29 22 21 22 c29 31
29 87 -1 147 -44 87 -56 86 -94 -6 l-23 -56 -36 62 -37 62 32 16 c18 10 46 31
63 48 25 28 30 41 33 100 5 81 -14 180 -35 188 -19 8 -117 -88 -142 -140 l-20
-39 -6 38 c-4 22 -9 46 -11 56 -4 12 5 20 31 28 20 6 43 23 52 37 25 38 20
183 -6 183 -5 0 -29 -18 -55 -41 l-46 -41 0 94 c0 121 22 221 59 273 42 60 61
101 61 135 0 38 -22 40 -48 3z m-153 -243 c39 -20 61 -58 53 -92 -5 -26 -44
-22 -71 6 -21 22 -42 106 -27 106 4 0 24 -9 45 -20z m175 -246 c14 -35 6 -82
-19 -108 -30 -33 -53 -33 -61 -2 -8 33 3 66 34 99 30 31 37 33 46 11z m-193
-65 c49 -17 75 -45 87 -92 14 -54 3 -67 -58 -67 -38 0 -55 6 -80 26 -28 24
-90 117 -90 137 0 11 103 8 141 -4z m303 -106 c3 -21 6 -66 6 -99 0 -68 -19
-102 -70 -129 -38 -20 -37 -20 -55 15 -17 33 -20 87 -5 125 10 26 97 125 110
125 4 0 10 -17 14 -37z m-119 -298 c32 -31 31 -43 -1 -56 -30 -11 -57 -5 -96
23 -49 34 -34 54 40 57 23 1 41 -7 57 -24z m195 -66 c34 -66 4 -144 -40 -104
-23 21 -27 79 -8 120 16 34 24 32 48 -16z m-42 -153 c15 -8 35 -23 46 -34 18
-20 18 -22 -4 -51 -29 -42 -56 -54 -114 -52 -51 2 -136 33 -136 50 0 11 87 77
121 90 34 14 56 13 87 -3z"/>
<path d="M3650 2371 c0 -32 22 -85 54 -131 49 -69 53 -88 10 -51 -43 38 -140
88 -151 78 -18 -19 13 -196 45 -249 19 -33 97 -78 136 -78 27 0 35 -13 28 -46
-4 -22 -5 -21 -49 12 -55 42 -65 36 -71 -40 -6 -73 11 -120 51 -139 17 -9 35
-13 39 -11 10 6 10 -31 2 -75 -8 -38 -20 -40 -28 -6 -7 29 -121 145 -141 145
-21 0 -38 -74 -39 -167 -1 -95 13 -123 82 -161 23 -13 42 -27 42 -30 0 -4 -14
-31 -30 -59 -30 -52 -50 -67 -50 -38 0 20 -36 91 -51 100 -21 14 -78 -88 -79
-141 0 -17 10 -44 22 -59 l22 -28 -30 -24 c-38 -31 -106 -66 -171 -87 -29 -10
-53 -22 -53 -28 0 -18 80 1 149 35 52 25 65 29 69 17 3 -8 22 -32 43 -54 39
-38 39 -38 106 -34 76 4 183 46 183 72 0 21 -107 103 -160 123 -25 9 -47 18
-48 19 -3 2 44 77 64 103 1 1 13 -4 26 -13 44 -31 97 -15 157 47 18 20 31 42
28 49 -6 17 -72 38 -117 38 -27 0 -31 3 -25 18 4 9 18 49 31 87 15 46 27 69
36 66 70 -21 125 -10 172 35 36 35 96 140 96 169 0 23 -135 21 -200 -4 l-50
-19 0 84 0 84 33 0 c34 0 63 22 85 66 17 33 26 120 13 128 -12 8 -96 -27 -123
-51 -21 -18 -16 -28 -54 111 -27 97 -61 156 -90 156 -8 0 -14 -8 -14 -19z m1
-170 c87 -56 119 -106 119 -187 0 -41 -2 -44 -26 -44 -48 0 -101 39 -124 91
-22 53 -39 169 -23 169 5 0 29 -13 54 -29z m254 -98 c-10 -56 -41 -93 -76 -93
-25 0 -29 4 -29 29 0 34 23 64 65 86 43 22 48 19 40 -22z m-175 -243 c29 -32
42 -79 28 -104 -12 -22 -27 -20 -55 6 -18 17 -23 32 -23 75 0 61 10 66 50 23z
m269 -82 c-28 -56 -54 -88 -87 -110 -27 -18 -86 -24 -116 -12 -21 8 -20 47 0
90 25 52 71 72 167 73 l57 1 -21 -42z m-321 -139 c36 -60 40 -92 15 -144 -20
-42 -27 -43 -75 -10 -47 32 -63 78 -54 161 10 96 12 99 50 71 17 -13 46 -48
64 -78z m139 -223 c10 -9 -35 -53 -68 -67 -23 -9 -36 -9 -54 -1 -31 14 -31 29
-2 60 19 20 29 23 70 19 26 -2 50 -7 54 -11z m-271 -71 c18 -44 18 -70 -2
-100 -45 -68 -86 19 -47 100 9 19 21 35 25 35 5 0 16 -16 24 -35z m100 -170
c28 -14 63 -38 78 -54 l28 -30 -38 -17 c-56 -24 -144 -30 -180 -11 -38 19 -62
62 -48 84 12 19 72 53 94 53 9 0 39 -11 66 -25z"/>
<path d="M2905 2035 c-52 -26 -142 -102 -195 -165 -197 -237 -161 -494 79
-566 83 -25 325 -16 404 15 109 43 160 107 160 201 0 84 -32 134 -106 165 -41
17 -103 20 -112 5 -6 -9 22 -15 53 -11 29 4 83 -22 111 -54 60 -69 47 -173
-31 -241 -39 -34 -74 -48 -153 -63 -48 -9 -49 -8 -25 8 85 57 119 113 120 195
0 41 -5 53 -34 82 -35 35 -56 43 -56 22 0 -30 -60 -136 -94 -165 -50 -44 -84
-61 -142 -68 -100 -14 -175 31 -188 112 -8 49 7 126 40 210 69 171 192 320
182 221 -2 -28 1 -34 19 -36 14 -2 33 7 49 23 22 22 25 33 21 62 -11 63 -41
78 -102 48z"/>
<path d="M4334 1830 c-30 -12 -72 -65 -83 -104 -11 -43 2 -119 29 -156 11 -16
40 -36 64 -45 39 -15 46 -15 79 -1 27 11 37 21 37 37 0 16 -4 19 -17 14 -33
-15 -81 -17 -102 -5 -31 16 -61 69 -61 108 0 91 75 140 163 107 13 -6 17 -2
17 14 0 35 -73 53 -126 31z"/>
<path d="M4562 1820 c-20 -12 -41 -39 -54 -67 -49 -111 16 -236 123 -235 170
3 177 301 7 319 -32 3 -52 -1 -76 -17z m103 -34 c105 -44 73 -226 -41 -226
-27 0 -43 7 -65 31 -25 27 -29 39 -29 86 0 49 4 59 34 89 38 38 51 40 101 20z"/>
<path d="M5803 1824 c-99 -49 -106 -217 -12 -286 34 -26 103 -26 138 -1 44 32
73 100 67 156 -13 115 -102 176 -193 131z m91 -34 c14 -5 35 -24 46 -42 47
-77 4 -187 -72 -188 -71 -1 -115 55 -106 134 9 80 66 121 132 96z"/>
<path d="M6447 1820 c-51 -41 -32 -109 44 -151 61 -35 66 -99 8 -107 -16 -3
-30 5 -46 24 -17 22 -25 26 -35 16 -18 -18 10 -62 49 -78 42 -18 77 -5 98 37
31 58 7 109 -72 155 -35 20 -45 36 -37 59 9 23 43 28 69 11 21 -14 25 -14 36
0 17 21 -6 43 -52 50 -26 4 -41 0 -62 -16z"/>
<path d="M7336 1819 c-18 -14 -26 -30 -26 -53 0 -41 21 -69 71 -97 61 -35 66
-99 8 -107 -16 -3 -30 5 -46 24 -17 22 -25 26 -35 16 -18 -18 10 -62 49 -78
42 -18 77 -5 98 37 31 58 7 109 -72 155 -35 20 -45 36 -37 59 9 22 43 28 68
11 17 -11 26 -12 35 -3 17 17 14 25 -19 42 -39 20 -62 19 -94 -6z"/>
<path d="M7572 1820 c-20 -12 -41 -39 -54 -67 -49 -111 16 -236 123 -235 76 1
131 69 131 161 0 120 -110 198 -200 141z m109 -36 c52 -27 74 -107 44 -164
-28 -54 -87 -76 -136 -50 -50 27 -66 136 -28 184 36 46 73 55 120 30z"/>
<path d="M7880 1818 c-70 -48 -93 -161 -47 -228 44 -65 89 -84 160 -66 21 5
27 12 27 32 0 21 -3 25 -17 19 -67 -29 -124 -9 -150 53 -41 98 48 203 136 159
30 -15 31 -15 31 9 0 46 -85 59 -140 22z"/>
<path d="M8699 1817 c-101 -67 -90 -236 18 -288 43 -21 46 -21 89 -4 113 43
129 223 25 292 -19 13 -48 23 -66 23 -18 0 -47 -10 -66 -23z m105 -31 c20 -8
39 -27 49 -49 21 -43 21 -67 3 -111 -39 -94 -157 -85 -187 14 -21 69 29 158
89 160 7 0 27 -6 46 -14z"/>
<path d="M8973 1818 c-11 -13 -23 -31 -27 -41 -10 -31 21 -80 72 -112 30 -19
48 -38 50 -53 8 -53 -52 -71 -87 -26 -14 18 -24 23 -35 17 -14 -7 -13 -13 4
-41 40 -65 113 -63 145 4 28 60 2 109 -84 156 -38 21 -41 54 -6 70 19 9 29 8
49 -5 20 -14 26 -14 35 -3 9 11 6 19 -15 35 -35 27 -75 27 -101 -1z"/>
<path d="M9287 1820 c-21 -17 -27 -30 -27 -59 0 -40 18 -63 78 -97 54 -31 55
-95 1 -102 -16 -3 -30 5 -46 24 -17 22 -25 26 -35 16 -18 -18 10 -62 50 -79
46 -19 87 3 103 56 15 52 -2 87 -63 126 -50 32 -61 46 -52 70 9 23 43 28 69
11 21 -14 25 -14 36 0 17 21 -6 43 -52 50 -26 4 -41 0 -62 -16z"/>
<path d="M9773 1824 c-117 -58 -98 -275 27 -303 35 -7 99 3 101 17 0 4 2 15 4
25 3 14 -1 17 -13 11 -34 -14 -73 -16 -100 -5 -59 25 -81 115 -42 179 27 43
63 57 113 42 44 -13 51 -10 43 18 -11 34 -79 42 -133 16z"/>
<path d="M4810 1675 c0 -130 2 -155 15 -155 11 0 15 21 17 107 l3 107 85 -106
c47 -59 88 -107 91 -108 3 0 5 69 5 152 -1 136 -3 153 -18 156 -15 3 -18 -9
-20 -104 l-3 -106 -84 106 c-46 58 -86 106 -88 106 -1 0 -3 -70 -3 -155z"/>
<path d="M5060 1810 c0 -16 7 -20 30 -20 l30 0 0 -136 c0 -124 2 -135 18 -132
15 3 17 19 20 136 l3 132 29 0 c23 0 28 4 27 20 -1 18 -8 20 -79 20 -71 0 -78
-2 -78 -20z"/>
<path d="M5282 1687 c-29 -78 -52 -148 -52 -155 0 -25 38 7 45 38 6 29 8 30
65 30 55 0 58 -1 65 -27 11 -44 45 -74 45 -40 0 16 -99 279 -109 289 -3 4 -30
-57 -59 -135z m80 -2 l17 -45 -39 0 -39 0 16 45 c8 25 18 45 22 45 4 0 14 -20
23 -45z"/>
<path d="M5490 1674 l0 -155 58 6 c31 3 68 14 82 24 57 41 78 143 42 211 -23
44 -73 70 -134 70 l-48 0 0 -156z m137 81 c66 -74 19 -185 -77 -185 l-30 0 0
111 0 112 43 -7 c26 -4 50 -15 64 -31z"/>
<path d="M6050 1676 c0 -132 2 -156 15 -156 12 0 15 14 15 68 1 62 2 66 16 47
9 -11 27 -41 40 -67 13 -27 31 -48 39 -48 22 0 19 14 -15 74 l-31 54 31 30
c22 22 30 40 30 65 0 53 -27 79 -88 85 l-52 5 0 -157z m104 82 c12 -33 -14
-68 -51 -68 -21 0 -23 4 -23 51 l0 50 32 -3 c25 -2 35 -9 42 -30z"/>
<path d="M6240 1681 c0 -163 -1 -161 63 -161 51 0 77 11 77 31 0 16 -8 19 -50
19 l-50 0 0 50 0 50 50 0 c42 0 50 3 50 19 0 22 -19 31 -66 31 -32 0 -34 2
-34 35 l0 35 50 0 c43 0 50 3 50 20 0 18 -7 20 -70 20 l-70 0 0 -149z"/>
<path d="M6720 1825 c0 -3 18 -41 40 -85 35 -70 40 -88 40 -150 0 -56 3 -70
15 -70 12 0 15 14 15 70 0 62 5 80 41 151 22 45 38 83 35 86 -13 13 -38 -11
-64 -62 l-28 -56 -29 60 c-19 42 -34 61 -47 61 -10 0 -18 -2 -18 -5z"/>
<path d="M7102 1693 c-61 -165 -60 -164 -44 -170 8 -3 19 11 29 36 16 41 16
41 70 41 53 0 53 0 69 -40 14 -36 44 -56 44 -30 0 13 -101 283 -110 293 -4 5
-30 -54 -58 -130z m88 -40 c0 -8 -14 -13 -36 -13 -25 0 -35 4 -31 13 2 6 10
29 18 51 l14 38 17 -38 c10 -22 18 -45 18 -51z"/>
<path d="M8060 1681 c0 -122 3 -150 15 -154 8 -4 16 -3 18 1 2 4 5 73 6 155 2
142 1 147 -19 147 -19 0 -20 -6 -20 -149z"/>
<path d="M8236 1819 c-3 -8 -28 -75 -56 -150 -27 -74 -50 -139 -50 -142 0 -4
7 -7 15 -7 8 0 22 18 31 40 16 40 17 40 69 40 52 0 54 -1 66 -35 12 -31 35
-52 46 -41 4 4 -103 296 -112 305 -3 2 -7 -2 -9 -10z m38 -157 c7 -20 4 -22
-28 -22 -41 0 -41 0 -19 58 l16 43 12 -28 c7 -16 16 -39 19 -51z"/>
<path d="M8392 1679 l3 -154 27 -3 c42 -5 108 17 134 45 57 61 54 167 -6 228
-25 25 -39 30 -95 33 l-66 4 3 -153z m107 100 c38 -14 61 -54 61 -109 0 -56
-42 -100 -94 -100 l-36 0 0 110 c0 122 0 123 69 99z"/>
<path d="M9542 1809 c-71 -191 -102 -277 -102 -283 0 -3 7 -6 15 -6 8 0 22 18
31 40 16 40 17 40 69 40 52 0 53 0 69 -40 15 -38 29 -49 40 -32 4 7 -98 290
-109 301 -3 2 -8 -7 -13 -20z m42 -147 c7 -20 4 -22 -28 -22 -41 0 -41 0 -19
58 l16 43 12 -28 c7 -16 16 -39 19 -51z"/>
<path d="M4302 1403 c-6 -2 -10 -9 -6 -14 3 -5 1112 -9 2795 -9 2467 0 2789 2
2789 15 0 13 -321 15 -2782 14 -1531 0 -2789 -3 -2796 -6z"/>
<path d="M6703 1186 c-33 -28 -42 -99 -19 -144 16 -32 53 -49 80 -39 45 17 65
122 33 170 -22 34 -63 40 -94 13z m57 -16 c11 -6 22 -26 26 -44 12 -65 -41
-124 -73 -80 -18 25 -16 94 4 116 19 21 19 21 43 8z"/>
<path d="M7053 1195 c-48 -33 -54 -127 -11 -172 28 -30 59 -29 89 3 20 21 24
36 23 81 0 48 -4 59 -28 79 -32 28 -44 29 -73 9z m61 -37 c31 -44 13 -128 -27
-128 -42 0 -63 83 -31 128 8 12 21 22 29 22 8 0 21 -10 29 -22z"/>
<path d="M7228 1196 c-68 -34 -45 -196 29 -196 48 0 81 59 70 127 -10 61 -53
92 -99 69z m54 -33 c22 -19 25 -90 5 -117 -32 -43 -85 15 -73 80 4 18 14 38
24 43 22 14 23 14 44 -6z"/>
<path d="M7402 1149 c-23 -34 -42 -72 -42 -84 0 -29 40 -65 71 -65 31 0 69 38
69 68 0 28 -34 62 -61 62 -20 0 -20 0 2 31 14 19 18 34 12 40 -6 6 -25 -12
-51 -52z m58 -54 c26 -32 -13 -81 -47 -59 -35 22 -23 74 17 74 10 0 23 -7 30
-15z"/>
<path d="M7567 1190 c-15 -12 -27 -28 -27 -36 0 -20 13 -18 33 6 20 24 31 25
51 4 24 -23 21 -32 -34 -95 -27 -32 -50 -59 -50 -62 0 -2 27 -5 60 -6 47 -1
60 2 60 14 0 11 -11 15 -37 15 l-37 0 31 33 c49 51 56 72 38 107 -9 16 -20 30
-24 30 -5 0 -16 2 -23 5 -8 3 -26 -4 -41 -15z"/>
<path d="M7742 1147 c-49 -72 -51 -89 -17 -122 29 -30 68 -32 95 -5 37 37 15
110 -33 110 -21 0 -21 4 -1 36 11 15 13 29 8 34 -6 6 -26 -15 -52 -53z m58
-51 c6 -8 10 -25 8 -38 -6 -42 -78 -32 -78 11 0 37 46 55 70 27z"/>
<path d="M7914 1200 c-22 -9 -37 -34 -27 -44 4 -3 14 1 24 10 10 9 26 14 36
12 25 -5 29 -39 7 -56 -18 -13 -18 -14 4 -29 25 -18 29 -45 7 -63 -15 -12 -55
-5 -55 11 0 5 -7 9 -15 9 -20 0 -19 -13 3 -33 25 -23 68 -21 92 3 24 24 25 47
3 72 -13 14 -14 21 -5 30 16 16 15 53 0 66 -21 16 -52 21 -74 12z"/>
<path d="M8093 1199 c-30 -11 -55 -52 -47 -75 11 -31 36 -54 57 -54 18 0 18
-1 3 -25 -18 -27 -21 -45 -7 -45 16 0 84 109 84 135 0 47 -47 80 -90 64z m51
-38 c36 -40 -15 -91 -55 -55 -23 21 -24 32 -2 56 21 23 36 23 57 -1z"/>
<path d="M5830 1100 c0 -77 3 -101 13 -97 6 2 12 15 13 28 1 13 2 30 3 38 0 8
15 -5 31 -28 37 -51 60 -45 26 6 l-25 36 25 19 c27 22 32 59 9 78 -8 6 -32 14
-55 17 l-40 6 0 -103z m78 37 c-2 -14 -11 -23 -24 -25 -17 -2 -22 3 -26 27 -5
33 7 43 35 29 11 -6 17 -18 15 -31z"/>
<path d="M5980 1121 c0 -68 3 -84 20 -101 28 -28 75 -26 105 5 22 21 25 33 25
100 0 60 -3 75 -15 75 -12 0 -15 -15 -15 -73 0 -78 -9 -97 -46 -97 -33 0 -42
19 -46 94 -2 44 -8 71 -15 74 -10 3 -13 -17 -13 -77z"/>
<path d="M6193 1176 c-37 -31 -46 -70 -28 -113 20 -48 89 -76 139 -57 34 13
16 29 -28 26 -38 -3 -49 0 -70 22 -31 31 -33 55 -5 90 17 22 28 26 71 26 64 0
61 24 -4 28 -37 2 -51 -2 -75 -22z"/>
<path d="M6527 1182 c-17 -19 -23 -42 -10 -42 4 0 17 10 30 22 19 17 28 20 41
12 32 -21 25 -49 -27 -107 -28 -30 -51 -57 -51 -59 0 -12 124 -2 128 10 2 8
-8 12 -32 12 -20 0 -36 3 -36 6 0 4 16 24 35 45 39 43 43 64 19 97 -19 28 -74
30 -97 4z"/>
<path d="M6884 1148 c-44 -62 -48 -102 -15 -130 42 -33 100 -14 115 38 8 26
-28 74 -55 74 -23 0 -25 13 -4 30 16 14 20 40 6 40 -5 0 -26 -24 -47 -52z m60
-54 c19 -19 20 -36 4 -52 -24 -24 -78 -8 -78 24 0 17 28 44 45 44 7 0 21 -7
29 -16z"/>
<path d="M8210 1185 c0 -11 12 -15 50 -15 28 0 50 -2 50 -5 0 -3 -22 -39 -50
-80 -54 -80 -56 -85 -37 -85 10 0 123 160 135 191 2 5 -30 9 -72 9 -61 0 -76
-3 -76 -15z"/>
<path d="M6350 1090 c0 -11 7 -20 15 -20 8 0 15 9 15 20 0 11 -7 20 -15 20 -8
0 -15 -9 -15 -20z"/>
<path d="M6351 1036 c-9 -10 -8 -16 3 -25 10 -9 16 -8 25 3 9 10 8 16 -3 25
-10 9 -16 8 -25 -3z"/>
<path d="M5792 894 c-12 -8 -22 -22 -22 -30 0 -19 26 -18 34 1 11 29 66 11 66
-22 0 -7 -22 -38 -50 -68 -27 -30 -50 -57 -50 -60 0 -3 27 -5 60 -5 45 0 60 4
60 14 0 9 -10 13 -30 12 -16 -1 -30 0 -30 3 0 3 16 26 35 50 37 46 38 68 7
104 -19 21 -51 22 -80 1z"/>
<path d="M6310 810 c0 -82 3 -100 15 -100 8 0 15 5 15 10 0 6 11 3 25 -6 23
-15 27 -15 49 0 32 20 41 50 26 87 -14 33 -53 48 -82 30 -16 -10 -18 -7 -18
34 0 33 -4 45 -15 45 -12 0 -15 -18 -15 -100z m100 -15 c15 -18 10 -45 -12
-59 -33 -20 -69 20 -54 60 7 18 50 18 66 -1z"/>
<path d="M7520 863 c0 -37 -3 -44 -12 -35 -18 18 -53 15 -71 -6 -33 -37 -14
-113 28 -113 11 1 35 1 53 1 l32 1 0 100 c0 81 -3 99 -15 99 -11 0 -15 -12
-15 -47z m0 -68 c27 -32 -23 -82 -55 -55 -15 13 -20 51 -8 63 12 12 50 7 63
-8z"/>
<path d="M7862 903 c-7 -2 -17 -13 -22 -24 -15 -27 3 -55 50 -79 42 -22 50
-40 25 -60 -15 -12 -26 -10 -57 12 -22 16 -35 3 -17 -18 23 -28 59 -36 85 -20
49 33 41 76 -22 111 -53 30 -52 51 4 48 47 -2 56 12 16 27 -27 11 -42 11 -62
3z"/>
<path d="M4821 809 c-12 -50 -20 -93 -18 -96 12 -12 24 9 37 64 l13 58 19 -45
c38 -93 33 -91 65 -21 l29 64 13 -56 c11 -53 25 -76 37 -64 6 6 -36 168 -46
180 -4 4 -17 -19 -31 -53 -13 -33 -27 -60 -31 -60 -3 0 -17 27 -30 60 -12 33
-25 60 -28 60 -3 0 -16 -41 -29 -91z"/>
<path d="M5312 823 c1 -75 0 -78 -27 -92 -21 -10 -24 -15 -14 -22 16 -10 51
-2 61 15 4 6 8 48 8 94 0 64 -3 82 -14 82 -11 0 -14 -17 -14 -77z"/>
<path d="M5480 805 l0 -95 45 0 c33 0 45 4 45 15 0 10 -10 15 -30 15 l-30 0 0
80 c0 64 -3 80 -15 80 -12 0 -15 -17 -15 -95z"/>
<path d="M6020 835 c0 -35 5 -76 12 -90 18 -40 84 -50 121 -18 23 22 26 173 2
173 -12 0 -15 -15 -15 -75 0 -63 -3 -76 -19 -85 -49 -26 -71 2 -71 91 0 55 -3
69 -15 69 -12 0 -15 -14 -15 -65z"/>
<path d="M6640 805 l0 -95 33 0 c65 0 104 63 58 92 -17 10 -17 14 -5 33 21 32
-6 65 -52 65 l-34 0 0 -95z m58 63 c17 -17 15 -26 -8 -38 -18 -10 -20 -8 -20
20 0 32 8 38 28 18z m6 -74 c23 -9 20 -41 -5 -54 -25 -14 -29 -11 -34 29 -4
32 6 38 39 25z"/>
<path d="M6897 893 c-4 -3 -7 -12 -7 -20 0 -15 26 -18 34 -4 7 11 -18 33 -27
24z"/>
<path d="M8642 805 c0 -75 3 -95 14 -95 10 0 14 13 15 43 l0 42 17 -24 c34
-49 49 -64 60 -60 8 3 4 17 -13 41 -29 43 -30 48 -10 48 9 0 20 11 27 25 9 19
8 29 -6 50 -13 20 -24 25 -60 25 l-43 0 -1 -95z m82 52 c9 -15 7 -21 -8 -33
-33 -24 -46 -17 -46 22 0 31 3 35 21 32 12 -2 27 -11 33 -21z"/>
<path d="M5600 855 c0 -8 -4 -15 -10 -15 -5 0 -10 -7 -10 -15 0 -8 5 -15 10
-15 6 0 10 -22 10 -50 0 -38 4 -50 15 -50 11 0 15 12 15 50 0 28 5 50 10 50 6
0 10 7 10 15 0 8 -4 15 -10 15 -5 0 -10 7 -10 15 0 8 -7 15 -15 15 -8 0 -15
-7 -15 -15z"/>
<path d="M8304 855 c3 -9 -1 -18 -9 -22 -12 -4 -13 -8 -3 -20 6 -8 11 -34 9
-59 -1 -34 2 -44 14 -44 11 0 15 12 15 50 0 38 4 50 15 50 8 0 15 5 15 10 0 6
-7 13 -15 16 -8 4 -15 12 -15 20 0 8 -7 14 -16 14 -10 0 -14 -5 -10 -15z"/>
<path d="M5036 832 c-11 -11 7 -22 35 -22 35 0 35 -3 5 -43 -42 -57 -42 -57
18 -57 62 0 77 17 20 22 l-36 3 36 47 c20 26 32 49 28 52 -11 7 -99 5 -106 -2z"/>
<path d="M6210 775 c0 -51 3 -65 15 -65 11 0 15 12 15 46 0 37 4 47 19 51 22
6 37 33 18 33 -7 0 -18 -5 -24 -11 -8 -8 -13 -8 -17 0 -17 26 -26 6 -26 -54z"/>
<path d="M6790 775 c0 -49 3 -65 14 -65 9 0 13 13 13 43 -1 34 3 44 21 52 25
11 30 35 7 35 -8 0 -15 -5 -15 -12 0 -9 -3 -9 -12 0 -22 22 -28 12 -28 -53z"/>
<path d="M6897 833 c-4 -3 -7 -33 -7 -65 0 -45 3 -58 15 -58 12 0 15 14 15 65
0 60 -6 75 -23 58z"/>
<path d="M6962 828 c-19 -19 -14 -35 18 -58 32 -23 32 -45 0 -35 -27 9 -35
-14 -8 -24 53 -20 84 47 33 71 -30 13 -33 28 -6 28 26 0 35 16 15 24 -24 9
-39 7 -52 -6z"/>
<path d="M7077 822 c-33 -37 -14 -113 28 -113 11 1 35 1 53 1 l32 1 0 58 c0
62 -6 77 -26 60 -8 -7 -14 -7 -19 1 -10 16 -50 12 -68 -8z m89 -37 c3 -7 0
-23 -6 -35 -14 -26 -47 -23 -67 7 -13 19 -12 24 6 42 17 17 25 19 42 11 11 -6
22 -17 25 -25z"/>
<path d="M7243 834 c-23 -10 -15 -54 12 -66 14 -6 25 -18 25 -26 0 -10 -7 -12
-25 -8 -29 7 -34 -9 -7 -23 14 -7 25 -6 40 5 30 21 27 42 -8 62 -37 21 -38 32
-4 32 16 0 24 5 22 13 -5 13 -35 19 -55 11z"/>
<path d="M7617 829 c-42 -25 -37 -97 8 -117 17 -8 33 -8 55 -1 43 15 37 30 -9
23 -33 -5 -41 -3 -50 15 -11 20 -10 21 44 21 61 0 71 14 35 50 -22 22 -55 25
-83 9z m68 -29 c4 -6 -8 -10 -29 -10 -20 0 -36 5 -36 10 0 6 13 10 29 10 17 0
33 -4 36 -10z"/>
<path d="M8006 818 c-31 -43 -13 -109 29 -109 11 1 35 1 53 1 l32 1 0 65 c0
61 -1 64 -19 54 -13 -7 -22 -7 -26 0 -11 18 -53 11 -69 -12z m84 -23 c29 -35
-26 -85 -58 -53 -13 13 -16 50 -5 61 12 12 50 7 63 -8z"/>
<path d="M8162 828 c-18 -18 -16 -118 3 -118 11 0 15 11 15 38 0 42 21 79 38
68 7 -4 12 -29 12 -57 0 -37 4 -49 15 -49 11 0 15 13 15 54 0 64 -17 85 -55
68 -15 -7 -25 -7 -27 -1 -2 6 -8 5 -16 -3z"/>
<path d="M8397 822 c-19 -21 -22 -64 -7 -93 9 -15 21 -19 65 -18 l55 2 0 63
c0 63 -6 74 -27 53 -8 -8 -13 -8 -17 0 -11 17 -51 13 -69 -7z m83 -27 c27 -32
-23 -82 -55 -55 -15 13 -20 51 -8 63 12 12 50 7 63 -8z"/>
<path d="M8800 820 c-58 -58 20 -150 83 -99 49 38 23 119 -38 119 -14 0 -34
-9 -45 -20z m75 -44 c0 -36 -26 -56 -49 -37 -16 14 -22 52 -9 65 4 4 19 6 33
4 20 -2 25 -8 25 -32z"/>
<path d="M8940 820 c-8 -15 -6 -24 10 -40 11 -11 25 -20 30 -20 6 0 10 -7 10
-15 0 -11 -8 -15 -22 -13 -13 2 -25 -1 -28 -7 -3 -5 9 -11 27 -13 44 -4 63 28
33 58 -11 11 -24 20 -30 20 -5 0 -10 5 -10 10 0 6 9 10 19 10 26 0 35 16 15
24 -27 11 -43 7 -54 -14z"/>
<path d="M9060 820 c-33 -33 -22 -87 21 -110 16 -9 26 -8 46 5 14 10 22 12 19
6 -4 -6 0 -11 8 -11 13 0 16 13 16 65 0 60 -9 80 -26 54 -4 -8 -9 -8 -17 0
-17 17 -45 13 -67 -9z m86 -35 c11 -43 -34 -73 -64 -43 -13 13 -16 50 -5 61 3
4 19 7 34 7 22 0 30 -6 35 -25z"/>
<path d="M9300 775 c0 -10 11 -15 35 -15 24 0 35 5 35 15 0 10 -11 15 -35 15
-24 0 -35 -5 -35 -15z"/>
<path d="M6474 739 c-8 -14 11 -33 25 -25 16 10 13 36 -3 36 -8 0 -18 -5 -22
-11z"/>
<path d="M5834 610 c-51 -20 -42 -70 16 -100 27 -14 40 -27 40 -41 0 -34 -30
-37 -72 -7 -30 21 -34 -3 -5 -28 33 -28 54 -30 85 -8 44 31 25 84 -40 112 -16
6 -28 19 -28 27 0 21 29 31 51 17 13 -8 20 -8 25 -1 14 23 -37 43 -72 29z"/>
<path d="M7347 613 c-4 -3 -7 -24 -7 -45 0 -35 -2 -38 -19 -28 -28 14 -38 13
-61 -10 -42 -42 -8 -131 43 -115 12 4 32 6 45 6 21 -1 22 2 22 99 0 92 -5 112
-23 93z m-7 -113 c16 -31 -4 -62 -38 -58 -28 3 -40 32 -28 64 8 21 54 17 66
-6z"/>
<path d="M6358 515 c-18 -71 -21 -95 -12 -95 7 0 18 19 24 43 19 75 20 75 50
12 l27 -60 22 48 c11 27 21 53 21 58 0 5 4 9 8 9 5 0 14 -25 21 -55 9 -37 17
-55 28 -55 9 0 13 6 10 14 -3 8 -11 34 -17 58 -6 24 -16 61 -22 83 l-11 40
-31 -69 -31 -69 -24 59 c-13 33 -27 63 -31 67 -4 4 -18 -35 -32 -88z"/>
<path d="M6960 591 c-5 -11 -10 -22 -10 -25 0 -11 26 5 38 24 10 17 10 20 -3
20 -8 0 -19 -9 -25 -19z"/>
<path d="M7660 515 c0 -78 3 -95 15 -95 11 0 15 11 15 40 0 35 3 40 23 40 29
0 57 29 57 58 0 27 -36 52 -77 52 l-33 0 0 -95z m71 65 c16 0 10 -48 -7 -54
-29 -11 -34 -6 -34 30 0 29 3 35 16 30 9 -3 20 -6 25 -6z"/>
<path d="M6870 561 c0 -11 -6 -22 -12 -25 -10 -5 -10 -7 0 -12 7 -3 12 -25 12
-55 0 -37 4 -49 15 -49 11 0 15 12 15 50 0 38 4 50 15 50 8 0 15 5 15 10 0 6
-7 10 -15 10 -8 0 -15 9 -15 20 0 11 -7 20 -15 20 -8 0 -15 -9 -15 -19z"/>
<path d="M5971 529 c-11 -13 -21 -35 -21 -49 0 -37 36 -74 64 -65 11 4 31 6
44 6 20 -1 22 3 22 59 0 56 -2 60 -22 59 -13 0 -33 2 -44 6 -15 5 -28 0 -43
-16z m79 -24 c15 -18 10 -45 -12 -59 -35 -22 -74 27 -48 59 16 19 44 19 60 0z"/>
<path d="M6166 541 c-3 -5 -15 -7 -26 -4 -18 5 -20 0 -20 -56 0 -47 3 -61 14
-61 11 0 16 14 18 48 3 39 6 47 23 47 17 0 20 -8 23 -47 2 -32 8 -48 17 -48
19 0 17 90 -3 113 -16 18 -38 22 -46 8z"/>
<path d="M6605 525 c-30 -30 -31 -54 -4 -89 24 -30 45 -33 71 -9 11 9 18 11
18 5 0 -7 7 -12 16 -12 12 0 15 12 13 61 -2 57 -3 60 -25 55 -13 -4 -26 -2
-29 4 -10 17 -35 11 -60 -15z m75 -20 c26 -32 -13 -81 -47 -59 -23 14 -28 41
-13 59 16 19 44 19 60 0z"/>
<path d="M6806 541 c-3 -5 -15 -7 -26 -4 -18 5 -20 0 -20 -56 0 -47 3 -61 15
-61 10 0 14 8 11 28 -4 37 10 72 29 72 8 0 15 7 15 15 0 16 -16 20 -24 6z"/>
<path d="M7061 541 c-7 -5 -22 -6 -32 -4 -17 5 -19 -1 -19 -56 0 -47 3 -61 14
-61 11 0 16 14 18 48 3 40 6 47 26 50 20 3 22 0 22 -47 0 -39 4 -51 15 -51 12
0 15 13 15 55 0 43 -4 56 -19 65 -23 12 -22 12 -40 1z"/>
<path d="M7431 532 c-31 -24 -31 -79 -1 -104 25 -21 38 -22 74 -8 40 15 31 29
-16 27 -33 -2 -43 2 -46 16 -3 14 4 17 47 17 59 0 67 16 25 49 -33 26 -55 26
-83 3z m74 -22 c4 -6 -8 -10 -30 -10 -22 0 -34 4 -30 10 3 6 17 10 30 10 13 0
27 -4 30 -10z"/>
<path d="M7814 532 c-30 -24 -36 -49 -19 -81 19 -38 60 -48 94 -23 38 28 40
74 5 101 -32 25 -52 26 -80 3z m70 -34 c8 -13 8 -23 0 -35 -28 -45 -89 -9 -64
38 13 24 48 22 64 -3z"/>
<path d="M7996 541 c-3 -5 -15 -7 -26 -4 -18 5 -20 0 -20 -56 0 -48 3 -61 15
-61 11 0 15 12 15 46 0 37 4 47 19 51 23 6 36 33 16 33 -7 0 -16 -4 -19 -9z"/>
<path d="M8101 541 c-7 -5 -22 -6 -32 -4 -17 5 -19 -1 -19 -56 0 -48 3 -61 15
-61 11 0 15 11 15 40 0 31 5 43 25 56 14 9 25 20 25 25 0 11 -11 11 -29 0z"/>
<path d="M8182 538 c-45 -22 -41 -101 6 -119 29 -12 73 -2 79 18 3 8 -9 11
-38 10 -34 -2 -44 2 -47 16 -3 14 4 17 47 17 54 0 63 11 39 43 -17 21 -58 29
-86 15z m63 -28 c4 -6 -8 -10 -30 -10 -22 0 -34 4 -30 10 3 6 17 10 30 10 13
0 27 -4 30 -10z"/>
<path d="M8316 534 c-19 -18 -8 -47 24 -64 29 -16 24 -28 -12 -32 l-33 -4 29
-14 c26 -13 30 -13 47 9 22 26 12 55 -21 66 -28 9 -25 25 5 25 28 0 34 15 9
24 -24 9 -31 8 -48 -10z"/>
<path d="M6950 480 c0 -47 3 -60 15 -60 12 0 15 13 15 60 0 47 -3 60 -15 60
-12 0 -15 -13 -15 -60z"/>
<path d="M5350 310 c-11 -11 -20 -29 -20 -39 0 -11 -6 -22 -12 -24 -10 -4 -10
-7 0 -14 7 -5 14 -31 15 -58 3 -67 27 -74 27 -7 0 41 3 51 20 55 11 3 20 10
20 16 0 6 -9 11 -20 11 -14 0 -20 7 -20 21 0 12 8 23 20 26 24 6 26 19 5 27
-9 3 -24 -3 -35 -14z"/>
<path d="M4820 305 c0 -9 9 -15 25 -15 25 0 25 -1 25 -86 0 -64 3 -85 13 -82
8 3 13 32 15 86 3 74 5 82 22 82 11 0 20 7 20 15 0 12 -13 15 -60 15 -47 0
-60 -3 -60 -15z"/>
<path d="M5100 220 c0 -82 3 -100 15 -100 12 0 15 18 15 100 0 82 -3 100 -15
100 -12 0 -15 -18 -15 -100z"/>
<path d="M6038 303 c-28 -32 -30 -58 -7 -86 11 -15 29 -27 40 -27 23 0 25 -13
4 -30 -8 -7 -15 -19 -15 -26 0 -29 22 -12 60 48 42 64 44 85 12 121 -8 9 -29
17 -47 17 -18 0 -39 -8 -47 -17z m82 -28 c18 -21 -2 -65 -29 -65 -22 0 -51 25
-51 44 0 34 57 49 80 21z"/>
<path d="M6212 308 c-14 -14 -16 -38 -3 -38 5 0 14 7 21 15 18 21 48 19 55 -5
8 -24 -1 -40 -21 -40 -21 0 -17 -18 6 -30 24 -13 27 -58 5 -66 -16 -6 -29 -2
-57 18 -25 18 -34 2 -13 -22 23 -25 76 -26 98 -2 21 23 22 56 2 75 -13 13 -13
16 0 27 35 29 2 80 -51 80 -17 0 -35 -5 -42 -12z"/>
<path d="M6382 308 c-7 -7 -12 -18 -12 -25 0 -18 27 -16 34 3 3 9 15 14 28 12
32 -4 36 -43 7 -58 l-22 -12 29 -23 c24 -20 27 -27 18 -42 -14 -24 -47 -28
-64 -8 -7 8 -19 15 -27 15 -23 0 4 -39 32 -46 65 -16 112 34 79 83 -11 18 -13
28 -5 36 29 29 -5 77 -55 77 -17 0 -35 -5 -42 -12z"/>
<path d="M6573 313 c-18 -7 -16 -23 2 -23 12 0 15 -16 15 -85 0 -50 4 -85 10
-85 6 0 10 40 10 100 0 101 -3 107 -37 93z"/>
<path d="M6741 283 c-16 -56 -14 -60 19 -55 24 3 32 0 42 -23 11 -24 10 -29
-10 -46 -19 -14 -28 -16 -53 -7 -36 13 -51 2 -25 -18 43 -31 101 -12 119 39
10 26 -18 74 -47 81 -37 9 -22 36 20 36 26 0 32 3 28 15 -4 10 -20 15 -45 15
-36 0 -39 -2 -48 -37z"/>
<path d="M6891 294 c-12 -15 -21 -35 -21 -45 0 -25 35 -59 61 -59 l21 0 -22
-35 c-16 -27 -18 -35 -7 -35 20 0 87 102 87 133 0 63 -80 90 -119 41z m87 -41
c3 -28 -1 -33 -23 -39 -29 -7 -55 10 -55 35 0 25 22 42 50 39 20 -2 26 -9 28
-35z"/>
<path d="M7078 310 c-23 -14 -41 -75 -34 -113 13 -67 55 -94 106 -67 41 22 49
114 15 167 -16 24 -56 30 -87 13z m72 -39 c5 -11 10 -34 10 -51 0 -44 -17 -70
-45 -70 -28 0 -45 26 -45 70 0 17 5 40 10 51 14 25 56 25 70 0z"/>
<path d="M7252 313 c-23 -9 -33 -40 -20 -68 9 -19 9 -28 0 -37 -33 -33 2 -88
55 -88 49 0 82 57 51 88 -9 9 -9 18 1 38 22 50 -29 90 -87 67z m57 -27 c16
-20 3 -46 -24 -46 -13 0 -26 7 -29 16 -7 19 10 44 29 44 7 0 18 -6 24 -14z m9
-107 c2 -18 -3 -29 -14 -33 -27 -11 -54 3 -54 28 0 30 9 38 40 34 19 -2 26
-10 28 -29z"/>
<path d="M7412 304 c-42 -29 -19 -114 31 -114 21 0 21 -4 1 -36 -11 -15 -13
-29 -8 -34 11 -11 94 106 94 131 0 9 -9 28 -21 43 -24 30 -63 34 -97 10z m78
-29 c15 -18 10 -45 -12 -59 -33 -20 -69 20 -54 60 7 18 50 18 66 -1z"/>
<path d="M7855 300 c-34 -37 -10 -110 37 -110 22 0 22 -8 3 -34 -17 -23 -19
-36 -5 -36 6 0 28 28 50 62 42 64 44 85 12 121 -21 23 -74 22 -97 -3z m85 -25
c18 -21 -2 -65 -29 -65 -22 0 -51 25 -51 44 0 34 57 49 80 21z"/>
<path d="M8207 302 c-19 -20 -22 -42 -7 -42 5 0 13 7 18 16 14 25 56 14 60
-16 2 -18 -11 -40 -48 -83 l-52 -57 66 0 c52 0 66 3 66 15 0 11 -11 15 -36 15
l-36 0 36 40 c41 45 47 87 18 113 -24 22 -65 21 -85 -1z"/>
<path d="M8388 265 c-58 -83 -45 -145 30 -145 31 0 72 37 72 65 0 22 -41 65
-61 65 -20 0 -20 0 0 29 18 25 19 42 2 41 -3 -1 -23 -25 -43 -55z m56 -51 c31
-30 13 -67 -30 -62 -21 2 -30 9 -32 26 -7 44 32 67 62 36z"/>
<path d="M8541 294 c-47 -60 -15 -174 49 -174 42 0 70 40 70 100 0 89 -72 134
-119 74z m77 -16 c7 -7 12 -33 12 -58 0 -48 -13 -70 -41 -70 -25 0 -40 24 -42
68 -2 60 38 93 71 60z"/>
<path d="M8733 313 c-18 -7 -16 -23 2 -23 12 0 15 -16 15 -85 0 -50 4 -85 10
-85 6 0 10 40 10 100 0 101 -3 107 -37 93z"/>
<path d="M8886 298 c-20 -28 -20 -38 -1 -38 8 0 15 4 15 10 0 5 9 14 19 20 15
7 23 6 35 -6 25 -24 20 -39 -35 -101 l-51 -58 52 -3 c29 -2 60 0 68 3 21 8 4
23 -30 27 l-28 3 36 45 c27 34 34 50 29 70 -12 52 -80 69 -109 28z"/>
<path d="M9030 306 c0 -13 12 -16 55 -16 l56 0 -49 -72 c-67 -101 -67 -101
-49 -96 21 4 139 181 126 189 -5 3 -39 7 -75 8 -52 2 -64 -1 -64 -13z"/>
<path d="M5220 290 c-6 -11 -7 -20 -2 -20 5 0 17 9 27 20 16 18 16 20 2 20 -9
0 -21 -9 -27 -20z"/>
<path d="M8056 238 l-58 -73 51 -3 c44 -3 51 -6 51 -23 0 -12 5 -19 13 -16 6
2 11 12 11 21 -1 9 3 16 8 16 5 0 7 9 3 19 -3 10 -6 44 -6 75 -1 31 -4 56 -8
56 -5 0 -34 -33 -65 -72z m44 -23 c0 -31 -3 -35 -25 -35 -14 0 -25 3 -25 6 0
8 40 64 46 64 2 0 4 -16 4 -35z"/>
<path d="M9256 238 l-58 -73 51 -3 c44 -3 51 -6 51 -23 0 -12 5 -19 13 -16 6
2 11 12 11 21 -1 9 3 16 8 16 5 0 7 9 3 19 -3 10 -6 44 -6 75 -1 31 -4 56 -8
56 -5 0 -34 -33 -65 -72z m44 -23 c0 -31 -3 -35 -25 -35 -14 0 -25 3 -25 6 0
8 40 64 46 64 2 0 4 -16 4 -35z"/>
<path d="M4951 223 c-23 -28 -21 -54 7 -85 18 -21 75 -24 91 -5 16 20 3 27
-25 15 -21 -10 -28 -8 -47 10 l-21 22 57 0 c62 0 69 8 41 48 -22 32 -76 30
-103 -5z m79 -8 c11 -13 7 -15 -24 -15 -35 0 -49 13 -23 23 22 9 34 7 47 -8z"/>
<path d="M5177 232 c-22 -25 -21 -75 1 -95 30 -27 116 -17 98 12 -5 7 -14 7
-31 -1 -19 -8 -28 -8 -40 2 -26 22 -17 30 35 30 42 0 50 3 50 18 0 46 -81 70
-113 34z m67 -8 c28 -11 17 -24 -19 -24 -34 0 -47 13 -22 23 18 8 23 8 41 1z"/>
<path d="M5430 230 c-41 -41 -10 -110 48 -110 35 0 65 30 65 65 0 58 -72 86
-113 45z m74 -16 c9 -8 16 -22 16 -29 0 -13 -26 -45 -36 -45 -19 0 -44 24 -44
43 0 43 35 60 64 31z"/>
<path d="M5570 182 c0 -46 3 -63 12 -60 7 3 14 25 16 49 3 49 13 64 36 56 12
-5 16 -20 16 -58 0 -63 23 -64 28 -1 5 64 -10 82 -63 80 l-45 -2 0 -64z"/>
<path d="M5721 224 c-12 -15 -21 -32 -21 -39 0 -27 41 -65 70 -65 29 0 70 38
70 65 0 7 -9 24 -21 39 -28 35 -70 35 -98 0z m73 -10 c9 -8 16 -22 16 -29 0
-15 -27 -45 -40 -45 -13 0 -40 30 -40 45 0 15 27 45 40 45 5 0 16 -7 24 -16z"/>
<path d="M5867 224 c-14 -15 -6 -34 14 -34 14 0 19 5 17 17 -3 18 -20 27 -31
17z"/>
<path d="M7650 185 c0 -10 11 -15 35 -15 24 0 35 5 35 15 0 10 -11 15 -35 15
-24 0 -35 -5 -35 -15z"/>
<path d="M5862 143 c2 -10 10 -18 18 -18 8 0 16 8 18 18 2 12 -3 17 -18 17
-15 0 -20 -5 -18 -17z"/>
</g>
</svg>
